<?xml version="1.0" encoding="iso-8859-1"?>
<!-- Generator: Adobe Illustrator 19.0.0, SVG Export Plug-In . SVG Version: 6.00 Build 0)  -->
<svg version="1.1" id="Capa_1" xmlns="http://www.w3.org/2000/svg" xmlns:xlink="http://www.w3.org/1999/xlink" x="0px" y="0px"
	 viewBox="0 0 489.816 489.816" style="enable-background:new 0 0 489.816 489.816;" xml:space="preserve">
<g>
	<path d="M469.213,90.608h-67.7v-69.8c0-11.5-9.4-20.8-20.8-20.8h-360.8c-7.3,0-14.6,4.2-17.7,10.4c-3.1,6.3-3.1,14.6,1,20.8
		l49,78.2v359.6c0,11.5,9.4,20.8,20.8,20.8h308.5c11.5,0,19.8-9.4,19.8-19.8v-337.7h46.9v194.9c0,11.5,9.4,20.8,20.8,20.8
		c11.5,0,20.8-9.4,20.8-20.8v-215.7C490.013,100.008,480.613,90.608,469.213,90.608z M57.513,40.608h304.3v201.2h-268.9v-138.6
		c0-3.1-1-7.3-3.1-10.4L57.513,40.608z M93.913,449.208h-1v-165.7h268.9v165.7H93.913z"/>
</g>
<g>
</g>
<g>
</g>
<g>
</g>
<g>
</g>
<g>
</g>
<g>
</g>
<g>
</g>
<g>
</g>
<g>
</g>
<g>
</g>
<g>
</g>
<g>
</g>
<g>
</g>
<g>
</g>
<g>
</g>
</svg>
