<?xml version="1.0" encoding="iso-8859-1"?>
<!-- Generator: Adobe Illustrator 19.0.0, SVG Export Plug-In . SVG Version: 6.00 Build 0)  -->
<svg version="1.1" id="Layer_1" xmlns="http://www.w3.org/2000/svg" xmlns:xlink="http://www.w3.org/1999/xlink" x="0px" y="0px"
	 viewBox="0 0 512 512" style="enable-background:new 0 0 512 512;" xml:space="preserve">
<circle style="fill:#FFC61B;" cx="256" cy="256" r="256"/>
<path style="fill:#EAA22F;" d="M505.16,314.985L361.398,171.223L215.776,283.582l-61.487,61.58l160.134,160.134
	C408.7,483.287,482.942,409.183,505.16,314.985z"/>
<circle style="fill:#FF7F4F;" cx="256" cy="256" r="122.397"/>
<path style="fill:#FFFFFF;" d="M378.397,256c0,67.598-54.8,122.397-122.397,122.397S133.603,323.598,133.603,256H378.397z"/>
<path style="fill:#C92F00;" d="M256,391.327c-74.619,0-135.327-60.707-135.327-135.327S181.381,120.673,256,120.673
	S391.327,181.381,391.327,256S330.619,391.327,256,391.327z M256,154.29c-56.082,0-101.71,45.628-101.71,101.71
	S199.918,357.71,256,357.71S357.71,312.082,357.71,256S312.082,154.29,256,154.29z"/>
<path style="fill:#930000;" d="M256,120.673c-0.193,0-0.381,0.014-0.574,0.014v33.616c0.193-0.002,0.381-0.014,0.574-0.014
	c56.082,0,101.71,45.628,101.71,101.71S312.082,357.71,256,357.71c-0.193,0-0.381-0.014-0.574-0.014v33.616
	c0.193,0,0.381,0.014,0.574,0.014c74.619,0,135.327-60.707,135.327-135.327S330.619,120.673,256,120.673z"/>
<path style="fill:#386895;" d="M318.861,193.05l-75.435,57.959c-5.153,5.153-5.153,13.507,0,18.66l0,0
	c5.153,5.153,13.507,5.153,18.66,0L318.861,193.05L318.861,193.05z"/>
<path style="fill:#273B7A;" d="M243.426,269.667L243.426,269.667c5.153,5.153,13.507,5.153,18.66,0l56.777-76.619l0,0
	L243.426,269.667z"/>
<g>
</g>
<g>
</g>
<g>
</g>
<g>
</g>
<g>
</g>
<g>
</g>
<g>
</g>
<g>
</g>
<g>
</g>
<g>
</g>
<g>
</g>
<g>
</g>
<g>
</g>
<g>
</g>
<g>
</g>
</svg>
