<?xml version="1.0" encoding="iso-8859-1"?>
<!-- Generator: Adobe Illustrator 19.0.0, SVG Export Plug-In . SVG Version: 6.00 Build 0)  -->
<svg version="1.1" id="Layer_1" xmlns="http://www.w3.org/2000/svg" xmlns:xlink="http://www.w3.org/1999/xlink" x="0px" y="0px"
	 viewBox="0 0 485.583 485.583" style="enable-background:new 0 0 485.583 485.583;" xml:space="preserve">
<g>
	<g>
		<g>
			<path d="M442.735,147.86c0.143-2.162,0.215-4.316,0.215-6.454c0-55.09-44.819-99.91-99.909-99.91
				c-14.494,0-28.76,3.145-41.812,9.161C283.623,19.567,250.565,0,214.295,0c-46.808,0-87.239,32.874-97.419,77.775
				C56.397,80.322,7.983,130.321,7.983,191.415l0.001,0.393c0.082,24.251,20.014,43.981,44.433,43.981h380.736
				c28.124,0,43.632-21.621,44.415-42.978C478.287,173.212,466.546,152.473,442.735,147.86z M457.581,192.079
				c-0.433,11.802-8.153,23.71-24.428,23.71H52.417c-13.428,0-24.388-10.788-24.433-24.056l-0.001-0.318
				c0-51.689,42.052-93.742,93.742-93.742c1.062,0,2.118,0.024,3.171,0.06c0.006,0,0.012,0,0.019,0
				c11.728,0.388,23.093,2.912,33.825,7.529c1.288,0.554,2.628,0.816,3.947,0.816c3.875,0,7.563-2.266,9.191-6.05
				c2.183-5.073-0.161-10.955-5.234-13.138c-9.439-4.061-19.276-6.784-29.385-8.161C146.634,44.61,178.072,20,214.295,20
				c31.903,0,60.704,18.934,73.373,48.236c0.025,0.058,0.058,0.111,0.084,0.168c4.279,9.961,6.452,20.558,6.452,31.505
				c0,5.523,4.478,10,10,10c5.522,0,10-4.477,10-10c0-10.63-1.648-21.002-4.893-30.951c10.514-4.898,22.026-7.462,33.73-7.462
				c44.063,0,79.909,35.847,79.909,79.91c0,1.932-0.089,3.887-0.237,5.849c-14.82,1.49-28.728,7.053-40.611,16.344
				c-4.351,3.401-5.12,9.686-1.719,14.037c1.972,2.522,4.913,3.841,7.885,3.841c2.154,0,4.324-0.693,6.152-2.123
				c10.478-8.191,23.064-12.521,36.401-12.521c0.072,0,0.142-0.009,0.214-0.011c0.151,0.009,0.3,0.028,0.452,0.03
				c1.256,0.014,2.523,0.067,3.767,0.159C452.366,168.269,457.977,181.301,457.581,192.079z"/>
			<path d="M196.997,105.674c-4.161-3.629-10.478-3.201-14.109,0.962c-3.63,4.162-3.2,10.479,0.962,14.109
				c4.029,3.515,7.782,7.398,11.155,11.542c1.977,2.429,4.857,3.688,7.762,3.688c2.218,0,4.452-0.735,6.307-2.245
				c4.283-3.486,4.93-9.785,1.443-14.068C206.428,114.64,201.879,109.934,196.997,105.674z"/>
			<path d="M162.916,306.383c0-8.812-4.134-17.308-8.131-25.525c-3.007-6.18-6.116-12.57-6.116-16.775c0-5.523-4.477-10-10-10
				s-10,4.477-10,10c0,8.812,4.133,17.308,8.131,25.525c3.007,6.18,6.116,12.57,6.116,16.775c0,4.205-3.109,10.595-6.116,16.775
				c-3.998,8.217-8.131,16.713-8.131,25.525c0,8.812,4.133,17.308,8.131,25.525c3.007,6.18,6.116,12.57,6.116,16.775
				c0,4.205-3.109,10.595-6.116,16.775c-3.997,8.217-8.131,16.713-8.131,25.525s4.133,17.308,8.131,25.524
				c3.007,6.18,6.116,12.57,6.116,16.775c0,5.523,4.477,10,10,10s10-4.477,10-10c0-8.812-4.134-17.309-8.131-25.525
				c-3.007-6.18-6.116-12.57-6.116-16.775c0-4.205,3.109-10.596,6.116-16.776c3.998-8.217,8.131-16.713,8.131-25.524
				s-4.134-17.308-8.131-25.525c-3.007-6.18-6.116-12.57-6.116-16.775c0-4.205,3.109-10.595,6.116-16.775
				C158.782,323.691,162.916,315.194,162.916,306.383z"/>
			<path d="M259.915,306.383c0-8.812-4.134-17.308-8.131-25.525c-3.006-6.18-6.115-12.57-6.115-16.775c0-5.523-4.477-10-10-10
				s-10,4.477-10,10c0,8.812,4.133,17.308,8.131,25.525c3.006,6.18,6.115,12.57,6.115,16.775c0,4.205-3.109,10.595-6.115,16.775
				c-3.998,8.217-8.131,16.713-8.131,25.524s4.133,17.308,8.131,25.525c3.006,6.18,6.115,12.57,6.115,16.775
				c0,4.205-3.109,10.595-6.115,16.775c-3.998,8.217-8.131,16.713-8.131,25.525c0,8.812,4.133,17.308,8.13,25.524
				c3.007,6.18,6.116,12.57,6.116,16.775c0,5.523,4.478,10,10,10c5.522,0,10-4.477,10-10c0-8.812-4.134-17.308-8.131-25.525
				c-3.007-6.18-6.115-12.57-6.115-16.775c0-4.205,3.109-10.596,6.115-16.776c3.997-8.217,8.131-16.713,8.131-25.524
				s-4.134-17.308-8.131-25.525c-3.006-6.18-6.115-12.57-6.115-16.775c0-4.205,3.109-10.595,6.115-16.775
				C255.781,323.69,259.915,315.194,259.915,306.383z"/>
			<path d="M339.134,452.426c-5.056,2.223-7.353,8.123-5.13,13.179c0.72,1.637,2.91,6.619,2.91,9.978c0,5.523,4.478,10,10,10
				c5.522,0,10-4.477,10-10c0-6.702-2.459-13.155-4.602-18.028C350.089,452.499,344.186,450.204,339.134,452.426z"/>
			<path d="M356.914,306.383c0-8.812-4.134-17.308-8.131-25.525c-3.007-6.18-6.115-12.57-6.115-16.775c0-5.523-4.478-10-10-10
				c-5.522,0-10,4.477-10,10c0,8.812,4.134,17.308,8.131,25.525c3.007,6.18,6.115,12.57,6.115,16.775
				c0,4.205-3.108,10.595-6.115,16.775c-3.997,8.216-8.131,16.713-8.131,25.524s4.134,17.308,8.131,25.525
				c3.007,6.18,6.115,12.57,6.115,16.775c0,4.205-3.108,10.595-6.115,16.775c-3.997,8.217-8.131,16.714-8.131,25.525
				c0,5.523,4.478,10,10,10c5.522,0,10-4.477,10-10c0-4.205,3.109-10.596,6.115-16.776c3.997-8.217,8.131-16.713,8.131-25.524
				s-4.134-17.308-8.131-25.525c-3.007-6.18-6.115-12.57-6.115-16.775c0-4.205,3.108-10.595,6.115-16.775
				C352.78,323.69,356.914,315.194,356.914,306.383z"/>
		</g>
	</g>
</g>
<g>
</g>
<g>
</g>
<g>
</g>
<g>
</g>
<g>
</g>
<g>
</g>
<g>
</g>
<g>
</g>
<g>
</g>
<g>
</g>
<g>
</g>
<g>
</g>
<g>
</g>
<g>
</g>
<g>
</g>
</svg>
