<?xml version="1.0" encoding="iso-8859-1"?>
<!-- Generator: Adobe Illustrator 19.0.0, SVG Export Plug-In . SVG Version: 6.00 Build 0)  -->
<svg version="1.1" id="Layer_1" xmlns="http://www.w3.org/2000/svg" xmlns:xlink="http://www.w3.org/1999/xlink" x="0px" y="0px"
	 viewBox="0 0 512 512" style="enable-background:new 0 0 512 512;" xml:space="preserve">
<g>
	<g>
		<path d="M375.736,113.273l-59.328-102.75h-0.031H193.234h-0.016l-86.547,149.891l92.375,53.344l55.767-96.594l28.547,49.453
			l-36.719,21.188l62.844,12.984l62.844,12.984l20.172-60.906l20.188-60.922L375.736,113.273z M191.236,184.615l-55.423-31.999
			l69.719-120.766h0.016l36.938,63.984L191.236,184.615z M372.25,146.148l-14.203,42.891l-44.25-9.141l-7.953-1.641l6.656-3.828
			l-10.672-18.484l-71.64-124.094h73.906l53.156,92.094l10.672,18.484l6.891-3.984L372.25,146.148z"/>
	</g>
</g>
<g>
	<g>
		<path d="M425.469,202.227l-92.375,53.344l55.75,96.578H331.75v-42.391l-42.656,47.922l-42.672,47.938l42.672,47.938l42.656,47.922
			V458.82h118.656l61.578-106.672l0.016-0.016L425.469,202.227z M438.094,437.477H331.75h-21.328v7.953l-5.406-6.063l-30.031-33.75
			l30.031-33.75l5.406-6.063v7.672h21.328h143.297L438.094,437.477z M487.359,352.148h-73.875l-51.25-88.766l55.422-32
			l69.719,120.75L487.359,352.148z"/>
	</g>
</g>
<g>
	<g>
		<path d="M123.156,351.852l28.547-49.454l36.719,21.203L168.25,262.68l-20.188-60.906l-62.844,12.984l-62.844,12.984l36.953,21.328
			L0,351.82l0.016,0.031l61.578,106.656h173.094V351.852H123.156z M24.641,351.82l53.172-92.078l10.656-18.484l-6.875-3.969
			l7.953-1.641l44.234-9.141L148,269.398l2.547,7.703l-6.656-3.844l-10.656,18.484L61.594,415.82L24.641,351.82z M213.344,437.18
			H73.922l-0.016-0.016l36.938-63.984h102.5V437.18z"/>
	</g>
</g>
<g>
</g>
<g>
</g>
<g>
</g>
<g>
</g>
<g>
</g>
<g>
</g>
<g>
</g>
<g>
</g>
<g>
</g>
<g>
</g>
<g>
</g>
<g>
</g>
<g>
</g>
<g>
</g>
<g>
</g>
</svg>
