<?xml version="1.0" encoding="iso-8859-1"?>
<!-- Generator: Adobe Illustrator 16.0.0, SVG Export Plug-In . SVG Version: 6.00 Build 0)  -->
<!DOCTYPE svg PUBLIC "-//W3C//DTD SVG 1.1//EN" "http://www.w3.org/Graphics/SVG/1.1/DTD/svg11.dtd">
<svg version="1.1" id="Capa_1" xmlns="http://www.w3.org/2000/svg" xmlns:xlink="http://www.w3.org/1999/xlink" x="0px" y="0px"
	 width="953.994px" height="953.994px" viewBox="0 0 953.994 953.994" style="enable-background:new 0 0 953.994 953.994;"
	 xml:space="preserve">
<g>
	<g>
		<path d="M941.79,355.06C769.357,199.765,476.997,202.351,476.997,202.351s-292.36-2.587-464.792,152.709
			c-14.085,12.685-16.255,33.989-5.065,49.29l242.915,332.147c9.616,13.148,26.691,18.444,42.07,13.074
			c23.218-8.106,60.701-19.421,105.416-26.448c-1.946-3.861-3.977-7.68-6.189-11.396c-5.308-8.915-11.135-17.501-17.378-25.787
			c-0.393-0.521-1.174-1.529-1.869-2.423c-0.901-1.143-1.798-2.286-2.71-3.42c-3.043-3.784-6.112-7.548-9.205-11.291
			c-14.67-17.752-29.783-35.333-42.4-54.646c-21.685-33.194-37.285-72.817-33.906-112.491h-52.185
			c-6.469,0-10.351-7.184-6.806-12.595l89.574-136.725c3.212-4.904,10.398-4.904,13.611,0l89.574,136.725
			c3.545,5.411-0.337,12.595-6.806,12.595h-51.69c-0.28,1.104-0.543,2.212-0.758,3.332c-0.084,0.406-0.14,0.817-0.218,1.226
			c-0.023,0.252-0.047,0.521-0.076,0.831c-0.26,4.814-0.263,9.647,0.153,14.454c0.114,0.771,0.233,1.506,0.333,1.984
			c0.495,2.39,0.994,4.782,1.63,7.14c1.29,4.78,2.728,9.524,4.509,14.147c0.274,0.709,0.914,2.174,1.424,3.326
			c0.616,1.323,1.241,2.641,1.9,3.943c5.026,9.947,10.718,19.548,17.064,28.711c2.581,3.727,5.225,7.409,7.951,11.03
			c0.583,0.748,1.153,1.479,1.464,1.862c1.526,1.887,3.057,3.771,4.599,5.645c28.346,34.455,58.431,68.348,73.555,111.076
			c0.74,2.091,1.411,4.196,2.051,6.306c0.755-0.005,1.505-0.019,2.261-0.019c78.487,0,148.845,20.324,184.874,32.903
			c15.379,5.369,32.454,0.074,42.07-13.074l4.471-6.113c0-0.001,0-0.002,0.001-0.004c-0.293-0.82-1.122-2.775-1.622-3.954
			c-0.357-0.763-0.713-1.526-1.089-2.28c-2.102-4.209-4.3-8.373-6.708-12.417c-5.308-8.915-11.135-17.501-17.378-25.787
			c-0.392-0.521-1.174-1.529-1.869-2.423c-0.9-1.143-1.798-2.286-2.709-3.42c-3.044-3.784-6.111-7.548-9.205-11.291
			c-14.67-17.753-29.782-35.334-42.399-54.646c-21.686-33.194-37.285-72.817-33.906-112.491h-52.185
			c-6.47,0-10.352-7.184-6.807-12.595l89.574-136.725c3.213-4.904,10.399-4.904,13.612,0l89.573,136.725
			c3.546,5.411-0.337,12.595-6.806,12.595h-51.689c-0.28,1.104-0.544,2.212-0.759,3.332c-0.084,0.406-0.139,0.817-0.218,1.226
			c-0.021,0.252-0.047,0.521-0.076,0.831c-0.26,4.814-0.263,9.647,0.153,14.454c0.115,0.771,0.234,1.506,0.333,1.984
			c0.495,2.39,0.994,4.782,1.63,7.14c1.289,4.78,2.729,9.524,4.509,14.147c0.274,0.709,0.914,2.174,1.424,3.326
			c0.615,1.323,1.241,2.641,1.9,3.943c5.027,9.947,10.718,19.548,17.065,28.711c2.581,3.727,5.224,7.409,7.95,11.03
			c0.583,0.748,1.154,1.479,1.465,1.862c1.525,1.887,3.056,3.771,4.598,5.645c17.34,21.077,35.324,41.947,50.143,64.755
			l189.938-259.711C958.045,389.049,955.875,367.744,941.79,355.06z"/>
	</g>
</g>
<g>
</g>
<g>
</g>
<g>
</g>
<g>
</g>
<g>
</g>
<g>
</g>
<g>
</g>
<g>
</g>
<g>
</g>
<g>
</g>
<g>
</g>
<g>
</g>
<g>
</g>
<g>
</g>
<g>
</g>
</svg>
