<?xml version="1.0" encoding="iso-8859-1"?>
<!-- Generator: Adobe Illustrator 17.1.0, SVG Export Plug-In . SVG Version: 6.00 Build 0)  -->
<!DOCTYPE svg PUBLIC "-//W3C//DTD SVG 1.1//EN" "http://www.w3.org/Graphics/SVG/1.1/DTD/svg11.dtd">
<svg version="1.1" id="Capa_1" xmlns="http://www.w3.org/2000/svg" xmlns:xlink="http://www.w3.org/1999/xlink" x="0px" y="0px"
	 viewBox="0 0 470 470" style="enable-background:new 0 0 470 470;" xml:space="preserve">
<g>
	<path d="M356.568,75.859c-5.136,0-10.263,0.422-15.314,1.259C326.413,31.367,283.699,0,235,0c-48.7,0-91.413,31.367-106.254,77.118
		c-5.052-0.836-10.178-1.259-15.314-1.259c-51.411,0-93.237,41.826-93.237,93.237c0,4.142,3.358,7.5,7.5,7.5h354.658
		c4.143,0,7.5-3.358,7.5-7.5s-3.357-7.5-7.5-7.5H35.551c3.788-39.634,37.271-70.737,77.88-70.737c6.343,0,12.666,0.766,18.794,2.277
		c3.995,0.983,8.043-1.436,9.062-5.427C152.219,44.899,190.755,15,235,15c44.244,0,82.78,29.899,93.713,72.709
		c1.019,3.991,5.065,6.412,9.062,5.426c6.128-1.51,12.451-2.276,18.794-2.276c40.609,0,74.093,31.104,77.881,70.737h-22.12
		c-4.143,0-7.5,3.358-7.5,7.5s3.357,7.5,7.5,7.5h29.977c4.143,0,7.5-3.358,7.5-7.5C449.806,117.685,407.979,75.859,356.568,75.859z"
		/>
	<path d="M149.347,199.833c0-4.142-3.358-7.5-7.5-7.5s-7.5,3.358-7.5,7.5c0,8.75-2.567,12.764-5.818,17.846
		c-3.646,5.699-8.182,12.792-8.182,25.929s4.537,20.23,8.182,25.929c3.25,5.082,5.818,9.096,5.818,17.847
		s-2.567,12.765-5.818,17.847c-3.646,5.699-8.182,12.792-8.182,25.93s4.537,20.23,8.182,25.929c3.25,5.082,5.818,9.096,5.818,17.847
		c0,8.752-2.568,12.767-5.818,17.85c-3.645,5.7-8.182,12.793-8.182,25.932s4.537,20.232,8.182,25.932
		c3.25,5.083,5.818,9.098,5.818,17.85c0,4.142,3.358,7.5,7.5,7.5s7.5-3.358,7.5-7.5c0-13.139-4.537-20.232-8.182-25.932
		c-3.251-5.083-5.818-9.098-5.818-17.85c0-8.752,2.568-12.767,5.818-17.85c3.645-5.7,8.182-12.793,8.182-25.932
		c0-13.137-4.537-20.23-8.182-25.929c-3.251-5.083-5.818-9.096-5.818-17.847s2.567-12.765,5.818-17.848
		c3.645-5.699,8.182-12.792,8.182-25.929s-4.537-20.23-8.182-25.929c-3.25-5.082-5.818-9.096-5.818-17.846
		c0-8.75,2.567-12.764,5.818-17.846C144.811,220.063,149.347,212.971,149.347,199.833z"/>
	<path d="M249.5,199.833c0-4.142-3.357-7.5-7.5-7.5s-7.5,3.358-7.5,7.5c0,8.75-2.567,12.764-5.818,17.846
		c-3.646,5.699-8.182,12.792-8.182,25.929s4.537,20.23,8.182,25.929c3.25,5.082,5.818,9.096,5.818,17.847
		s-2.567,12.765-5.818,17.847c-3.646,5.699-8.182,12.792-8.182,25.93s4.537,20.23,8.182,25.929c3.25,5.082,5.818,9.096,5.818,17.847
		c0,8.752-2.568,12.767-5.818,17.85c-3.645,5.7-8.182,12.793-8.182,25.932s4.537,20.232,8.182,25.932
		c3.25,5.083,5.818,9.098,5.818,17.85c0,4.142,3.357,7.5,7.5,7.5s7.5-3.358,7.5-7.5c0-13.139-4.536-20.232-8.182-25.932
		c-3.251-5.083-5.818-9.098-5.818-17.85c0-8.752,2.567-12.767,5.818-17.85c3.646-5.7,8.182-12.793,8.182-25.932
		c0-13.137-4.536-20.23-8.182-25.929c-3.251-5.083-5.818-9.096-5.818-17.847s2.567-12.765,5.818-17.848
		c3.646-5.699,8.182-12.792,8.182-25.929s-4.537-20.23-8.182-25.929c-3.251-5.082-5.818-9.096-5.818-17.846
		c0-8.75,2.567-12.764,5.818-17.846C244.963,220.063,249.5,212.971,249.5,199.833z"/>
	<path d="M349.653,199.833c0-4.142-3.357-7.5-7.5-7.5s-7.5,3.358-7.5,7.5c0,8.75-2.567,12.764-5.818,17.846
		c-3.645,5.699-8.182,12.792-8.182,25.929s4.537,20.23,8.182,25.929c3.251,5.082,5.818,9.096,5.818,17.847
		s-2.567,12.765-5.818,17.847c-3.645,5.699-8.182,12.792-8.182,25.93s4.537,20.23,8.182,25.929
		c3.251,5.082,5.818,9.096,5.818,17.847c0,8.752-2.567,12.767-5.818,17.85c-3.646,5.7-8.182,12.793-8.182,25.932
		s4.536,20.232,8.182,25.932c3.251,5.083,5.818,9.098,5.818,17.85c0,4.142,3.357,7.5,7.5,7.5s7.5-3.358,7.5-7.5
		c0-13.139-4.536-20.232-8.182-25.932c-3.251-5.083-5.818-9.098-5.818-17.85c0-8.752,2.567-12.767,5.818-17.85
		c3.646-5.7,8.182-12.793,8.182-25.932c0-13.137-4.536-20.23-8.182-25.929c-3.251-5.083-5.818-9.096-5.818-17.847
		s2.567-12.765,5.818-17.848c3.646-5.699,8.182-12.792,8.182-25.929s-4.537-20.23-8.182-25.929
		c-3.251-5.082-5.818-9.096-5.818-17.846c0-8.75,2.567-12.764,5.818-17.846C345.116,220.063,349.653,212.971,349.653,199.833z"/>
</g>
<g>
</g>
<g>
</g>
<g>
</g>
<g>
</g>
<g>
</g>
<g>
</g>
<g>
</g>
<g>
</g>
<g>
</g>
<g>
</g>
<g>
</g>
<g>
</g>
<g>
</g>
<g>
</g>
<g>
</g>
</svg>
