<?xml version="1.0" encoding="iso-8859-1"?>
<!-- Generator: Adobe Illustrator 16.0.0, SVG Export Plug-In . SVG Version: 6.00 Build 0)  -->
<!DOCTYPE svg PUBLIC "-//W3C//DTD SVG 1.1//EN" "http://www.w3.org/Graphics/SVG/1.1/DTD/svg11.dtd">
<svg version="1.1" id="Capa_1" xmlns="http://www.w3.org/2000/svg" xmlns:xlink="http://www.w3.org/1999/xlink" x="0px" y="0px"
	 width="378.798px" height="378.797px" viewBox="0 0 378.798 378.797" style="enable-background:new 0 0 378.798 378.797;"
	 xml:space="preserve">
<g>
	<path d="M378.67,225.412L351.193,73.449c-0.684-3.779-3.975-6.527-7.812-6.527c-0.011,0-0.021,0-0.031,0L7.907,68.209
		c-3.306,0.012-6.258,2.073-7.408,5.174c-1.153,3.098-0.265,6.586,2.231,8.756l48.714,42.332l29.262,180.734
		c0.622,3.848,3.941,6.67,7.835,6.67c0.01,0,0.02,0,0.028,0l170.792-0.645c3.904-0.016,7.219-2.869,7.813-6.73l29.608-192.23
		l16.728-2.659l21.595,125.374c0.373,2.166,1.629,4.082,3.471,5.291c1.837,1.201,4.094,1.592,6.234,1.074l27.929-6.814
		C376.816,233.539,379.416,229.539,378.67,225.412z M349.309,223.907L327.826,99.193c-0.739-4.282-4.776-7.158-9.068-6.492
		L288.575,97.5c-3.407,0.542-6.073,3.225-6.599,6.632l-29.459,191.251l-119.881,0.451l-0.078-20.469l19.422-0.073
		c4.384-0.017,7.924-3.584,7.907-7.97c-0.018-4.37-3.568-7.905-7.938-7.905c-0.01,0-0.02,0-0.031,0l-19.422,0.073l-0.064-17.108
		l19.42-0.075c4.384-0.021,7.924-3.587,7.907-7.97c-0.017-4.373-3.568-7.907-7.938-7.907c-0.01,0-0.021,0-0.03,0l-19.42,0.077
		l-0.066-17.11l19.42-0.074c4.384-0.016,7.924-3.584,7.907-7.969c-0.017-4.371-3.568-7.906-7.938-7.906c-0.01,0-0.02,0-0.03,0
		l-19.418,0.074l-0.066-17.114l19.422-0.073c4.384-0.016,7.924-3.586,7.907-7.969c-0.017-4.372-3.568-7.907-7.938-7.907
		c-0.011,0-0.021,0-0.031,0l-19.42,0.074l-0.066-17.104l19.424-0.073c4.385-0.016,7.924-3.586,7.907-7.969
		c-0.017-4.372-3.568-7.907-7.938-7.907c-0.011,0-0.021,0-0.031,0l-19.424,0.073l-0.061-15.806
		c-0.018-4.372-3.566-7.906-7.938-7.906c-0.011,0-0.021,0-0.031,0c-4.384,0.016-7.924,3.585-7.907,7.969l0.598,155.682l0,0l0,0
		l0.107,28.402l-21.469,0.08L66.655,119.1c-0.296-1.833-1.227-3.504-2.627-4.725L29.08,84.003l307.677-1.178l24.961,138.054
		L349.309,223.907z"/>
</g>
<g>
</g>
<g>
</g>
<g>
</g>
<g>
</g>
<g>
</g>
<g>
</g>
<g>
</g>
<g>
</g>
<g>
</g>
<g>
</g>
<g>
</g>
<g>
</g>
<g>
</g>
<g>
</g>
<g>
</g>
</svg>
