<?xml version="1.0" encoding="iso-8859-1"?>
<!-- Generator: Adobe Illustrator 19.0.0, SVG Export Plug-In . SVG Version: 6.00 Build 0)  -->
<svg version="1.1" id="Layer_1" xmlns="http://www.w3.org/2000/svg" xmlns:xlink="http://www.w3.org/1999/xlink" x="0px" y="0px"
	 viewBox="0 0 512 512" style="enable-background:new 0 0 512 512;" xml:space="preserve">
<g>
	<g>
		<path d="M300.084,386.41l-9.799,12.233c13.075,10.472,20.573,26.082,20.573,42.826c0,15.132-6.028,29.224-16.973,39.677
			c-10.938,10.448-25.309,15.82-40.482,15.121c-27.899-1.282-50.824-24.134-52.19-52.025c-0.875-17.841,6.6-34.461,20.505-45.599
			l2.937-2.352V47.02c0-17.285,14.062-31.347,31.347-31.347s31.347,14.062,31.347,31.347v322.873h15.673V47.02
			c0-25.927-21.093-47.02-47.02-47.02s-47.02,21.093-47.02,47.02v341.878c-15.764,14.121-24.467,34.813-23.423,56.11
			c1.758,35.873,31.242,65.265,67.126,66.914c1.124,0.051,2.242,0.077,3.359,0.077c18.242,0,35.415-6.862,48.668-19.521
			c14.072-13.439,21.821-31.556,21.821-51.011C326.53,419.94,316.891,399.872,300.084,386.41z"/>
	</g>
</g>
<g>
	<g>
		<rect x="248.163" y="91.428" width="15.673" height="255.999"/>
	</g>
</g>
<g>
	<g>
		<rect x="321.306" y="80.791" width="64.784" height="15.673"/>
	</g>
</g>
<g>
	<g>
		<rect x="321.306" y="148.323" width="64.784" height="15.673"/>
	</g>
</g>
<g>
	<g>
		<rect x="321.306" y="215.855" width="64.784" height="15.673"/>
	</g>
</g>
<g>
	<g>
		<rect x="321.306" y="283.386" width="64.784" height="15.673"/>
	</g>
</g>
<g>
	<g>
		<rect x="321.306" y="350.918" width="64.784" height="15.673"/>
	</g>
</g>
<g>
	<g>
		<rect x="321.306" y="114.552" width="47.02" height="15.673"/>
	</g>
</g>
<g>
	<g>
		<rect x="321.306" y="182.084" width="47.02" height="15.673"/>
	</g>
</g>
<g>
	<g>
		<rect x="321.306" y="249.626" width="47.02" height="15.673"/>
	</g>
</g>
<g>
	<g>
		<rect x="321.306" y="317.157" width="47.02" height="15.673"/>
	</g>
</g>
<g>
	<g>
		<polygon points="157.258,104.297 157.258,88.624 141.585,88.624 141.585,104.297 125.912,104.297 125.912,119.971 
			141.585,119.971 141.585,135.644 157.258,135.644 157.258,119.971 172.932,119.971 172.932,104.297 		"/>
	</g>
</g>
<g>
	<g>
		<rect x="125.91" y="350.918" width="47.02" height="15.673"/>
	</g>
</g>
<g>
	<g>
		<rect x="248.163" y="54.857" width="15.673" height="15.673"/>
	</g>
</g>
<g>
	<g>
		<rect x="248.163" y="368.326" width="15.673" height="15.673"/>
	</g>
</g>
<g>
	<g>
		<path d="M256.001,412.734c-15.845,0-28.735,12.89-28.735,28.735c0,15.845,12.89,28.735,28.735,28.735
			c15.845,0,28.735-12.89,28.735-28.735C284.736,425.624,271.846,412.734,256.001,412.734z M256.001,454.53
			c-7.203,0-13.061-5.859-13.061-13.061c0-7.203,5.859-13.061,13.061-13.061c7.202,0,13.061,5.859,13.061,13.061
			C269.062,448.671,263.204,454.53,256.001,454.53z"/>
	</g>
</g>
<g>
</g>
<g>
</g>
<g>
</g>
<g>
</g>
<g>
</g>
<g>
</g>
<g>
</g>
<g>
</g>
<g>
</g>
<g>
</g>
<g>
</g>
<g>
</g>
<g>
</g>
<g>
</g>
<g>
</g>
</svg>
