<?xml version="1.0" encoding="iso-8859-1"?>
<!-- Generator: Adobe Illustrator 19.0.0, SVG Export Plug-In . SVG Version: 6.00 Build 0)  -->
<svg version="1.1" id="Layer_1" xmlns="http://www.w3.org/2000/svg" xmlns:xlink="http://www.w3.org/1999/xlink" x="0px" y="0px"
	 viewBox="0 0 512 512" style="enable-background:new 0 0 512 512;" xml:space="preserve">
<g>
	<g>
		<path d="M411.691,70.194c10.268-10.82,21.681-18.348,34.078-22.437l-5.173-15.685c-20.068,6.619-37.75,20.374-52.555,40.885
			c-7.922,10.972-14.22,22.758-19.18,33.998V17.892h-16.516v89.068c-4.86-11.004-11.006-22.53-18.709-33.301
			c-14.859-20.857-32.695-34.847-53.015-41.585l-5.198,15.677c12.407,4.114,23.809,11.645,34.054,22.441H202.488
			c10.268-10.82,21.681-18.348,34.078-22.437l-5.173-15.685c-20.068,6.619-37.75,20.374-52.555,40.885
			c-7.922,10.972-14.22,22.758-19.18,33.998V17.892h-16.516v89.068c-4.86-11.004-11.006-22.53-18.709-33.301
			c-14.86-20.855-32.698-34.847-53.017-41.584l-5.197,15.677c12.407,4.114,23.809,11.645,34.054,22.441H0v423.914h79.827v-16.516
			H16.516v-76.84c17.644,1.046,27.539,5.443,37.936,10.064c12.966,5.763,26.375,11.722,52.902,11.722s39.936-5.959,52.902-11.722
			c11.917-5.296,23.173-10.299,46.195-10.299c23.033,0,34.285,5.007,46.199,10.307c12.944,5.759,26.329,11.714,52.788,11.714
			c26.593,0,40.026-5.963,53.016-11.73c11.921-5.293,23.181-10.292,46.191-10.292c23.021,0,34.278,5.002,46.195,10.299
			c11.546,5.132,23.45,10.415,44.644,11.512v55.264h-393.63v16.516H512V70.194H411.691z M495.484,405.786
			c-17.644-1.046-27.539-5.443-37.936-10.064C444.581,389.959,431.172,384,404.645,384c-26.512,0-39.923,5.954-52.892,11.712
			c-11.942,5.302-23.222,10.309-46.315,10.309c-22.951,0-34.183-4.998-46.074-10.288C246.4,389.965,232.994,384,206.452,384
			c-26.527,0-39.936,5.959-52.902,11.722c-11.917,5.296-23.173,10.299-46.195,10.299c-23.021,0-34.278-5.002-46.195-10.299
			c-11.546-5.131-23.45-10.414-44.644-11.512v-93.566c17.644,1.046,27.539,5.443,37.936,10.064
			c12.966,5.763,26.375,11.722,52.902,11.722s39.936-5.959,52.902-11.722c11.917-5.296,23.173-10.299,46.195-10.299
			c23.033,0,34.285,5.007,46.199,10.307c12.944,5.759,26.329,11.714,52.788,11.714c26.593,0,40.026-5.963,53.016-11.73
			c11.921-5.293,23.181-10.292,46.191-10.292c23.021,0,34.278,5.002,46.195,10.299c11.546,5.132,23.45,10.415,44.644,11.512V405.786
			z M495.484,119.742h-79.828v16.516h79.828v55.054H74.323v16.516h421.161v87.85c-17.644-1.046-27.539-5.443-37.936-10.064
			c-12.966-5.763-26.375-11.722-52.902-11.722c-26.512,0-39.923,5.954-52.892,11.712c-11.942,5.302-23.222,10.309-46.315,10.309
			c-22.951,0-34.183-4.998-46.074-10.288c-12.964-5.769-26.37-11.733-52.912-11.733c-26.527,0-39.936,5.959-52.902,11.722
			c-11.917,5.296-23.173,10.299-46.195,10.299c-23.021,0-34.278-5.002-46.195-10.299c-11.546-5.131-23.45-10.414-44.644-11.512
			v-66.275h35.785v-16.516H16.516v-55.054h79.828v-16.516H16.516V86.71h96.862c16.036,23.909,24.313,51.734,27.799,66.065H112.86
			v16.516h77.075v-16.516h-28.314c3.528-14.491,11.951-42.781,28.314-66.877v0.813h132.647
			c16.036,23.909,24.313,51.734,27.799,66.065h-28.316v16.516h77.075v-16.516h-28.314c3.528-14.491,11.951-42.781,28.314-66.877
			v0.813h96.344V119.742z"/>
	</g>
</g>
<g>
	<g>
		<rect x="74.323" y="251.871" width="27.527" height="16.516"/>
	</g>
</g>
<g>
	<g>
		<rect x="101.849" y="229.849" width="27.527" height="16.516"/>
	</g>
</g>
<g>
	<g>
		<rect x="178.925" y="229.849" width="27.527" height="16.516"/>
	</g>
</g>
<g>
	<g>
		<rect x="283.527" y="251.871" width="27.527" height="16.516"/>
	</g>
</g>
<g>
	<g>
		<rect x="426.667" y="229.849" width="27.527" height="16.516"/>
	</g>
</g>
<g>
	<g>
		<rect x="426.667" y="350.968" width="27.527" height="16.516"/>
	</g>
</g>
<g>
	<g>
		<rect x="305.548" y="350.968" width="27.527" height="16.516"/>
	</g>
</g>
<g>
	<g>
		<rect x="283.527" y="328.946" width="27.527" height="16.516"/>
	</g>
</g>
<g>
	<g>
		<rect x="173.419" y="328.946" width="27.527" height="16.516"/>
	</g>
</g>
<g>
	<g>
		<rect x="52.301" y="350.968" width="27.527" height="16.516"/>
	</g>
</g>
<g>
	<g>
		<rect x="107.355" y="350.968" width="27.527" height="16.516"/>
	</g>
</g>
<g>
	<g>
		<rect x="41.29" y="439.054" width="27.527" height="16.516"/>
	</g>
</g>
<g>
	<g>
		<rect x="173.419" y="417.032" width="27.527" height="16.516"/>
	</g>
</g>
<g>
	<g>
		<rect x="217.462" y="439.054" width="27.527" height="16.516"/>
	</g>
</g>
<g>
	<g>
		<rect x="448.688" y="439.054" width="27.527" height="16.516"/>
	</g>
</g>
<g>
	<g>
		<rect x="360.602" y="439.054" width="27.527" height="16.516"/>
	</g>
</g>
<g>
	<g>
		<rect x="206.452" y="119.742" width="22.022" height="16.516"/>
	</g>
</g>
<g>
	<g>
		<rect x="222.968" y="141.763" width="22.021" height="16.516"/>
	</g>
</g>
<g>
	<g>
		<rect x="289.032" y="119.742" width="22.021" height="16.516"/>
	</g>
</g>
<g>
	<g>
		<rect x="57.806" y="152.774" width="22.021" height="16.516"/>
	</g>
</g>
<g>
	<g>
		<rect x="432.172" y="152.774" width="22.021" height="16.516"/>
	</g>
</g>
<g>
</g>
<g>
</g>
<g>
</g>
<g>
</g>
<g>
</g>
<g>
</g>
<g>
</g>
<g>
</g>
<g>
</g>
<g>
</g>
<g>
</g>
<g>
</g>
<g>
</g>
<g>
</g>
<g>
</g>
</svg>
