<?xml version="1.0" encoding="iso-8859-1"?>
<!-- Generator: Adobe Illustrator 16.0.0, SVG Export Plug-In . SVG Version: 6.00 Build 0)  -->
<!DOCTYPE svg PUBLIC "-//W3C//DTD SVG 1.1//EN" "http://www.w3.org/Graphics/SVG/1.1/DTD/svg11.dtd">
<svg version="1.1" id="Capa_1" xmlns="http://www.w3.org/2000/svg" xmlns:xlink="http://www.w3.org/1999/xlink" x="0px" y="0px"
	 width="140.079px" height="140.079px" viewBox="0 0 140.079 140.079" style="enable-background:new 0 0 140.079 140.079;"
	 xml:space="preserve">
<g>
	<path d="M51.828,90.082c0-2.451,1.982-4.427,4.432-4.427c2.449,0,4.433,1.98,4.433,4.427c0,5.165,4.197,9.362,9.351,9.362
		c2.449,0,4.432,1.98,4.432,4.427c0,2.451-1.982,4.435-4.432,4.435C59.997,108.306,51.828,100.129,51.828,90.082z M128.919,121.896
		c0,14.353-37.015,18.183-58.879,18.183c-21.87,0-58.88-3.836-58.88-18.183c0-8.651,13.284-13.193,26.322-15.533
		c-2.47-4.927-3.995-10.394-3.995-16.271c0-18.2,29.215-80.69,32.551-87.749c1.45-3.125,6.555-3.125,8.012,0
		c3.33,7.059,32.553,69.549,32.553,87.749c0,5.877-1.517,11.344-3.996,16.271C115.663,108.72,128.919,113.261,128.919,121.896z
		 M42.348,90.082c0,15.283,12.421,27.698,27.692,27.698c15.277,0,27.697-12.432,27.697-27.698c0-11.984-17.396-52.679-27.697-75.311
		C59.735,37.403,42.348,78.098,42.348,90.082z M120.107,121.645c-0.668-1.051-7.213-4.821-23.005-7.199
		c-6.695,7.434-16.29,12.206-27.059,12.206s-20.361-4.772-27.054-12.206c-15.81,2.378-22.349,6.182-23,7.691
		c1.223,2.325,17.354,9.084,50.06,9.084C102.757,131.221,118.875,124.462,120.107,121.645z"/>
</g>
<g>
</g>
<g>
</g>
<g>
</g>
<g>
</g>
<g>
</g>
<g>
</g>
<g>
</g>
<g>
</g>
<g>
</g>
<g>
</g>
<g>
</g>
<g>
</g>
<g>
</g>
<g>
</g>
<g>
</g>
</svg>
