<?xml version="1.0" encoding="iso-8859-1"?>
<!-- Generator: Adobe Illustrator 16.0.0, SVG Export Plug-In . SVG Version: 6.00 Build 0)  -->
<!DOCTYPE svg PUBLIC "-//W3C//DTD SVG 1.1//EN" "http://www.w3.org/Graphics/SVG/1.1/DTD/svg11.dtd">
<svg xmlns="http://www.w3.org/2000/svg" xmlns:xlink="http://www.w3.org/1999/xlink" version="1.1" id="Capa_1" x="0px" y="0px" width="512px" height="512px" viewBox="0 0 106.723 106.723" style="enable-background:new 0 0 106.723 106.723;" xml:space="preserve">
<g>
	<path d="M84.677,28.818L71.349,55.843l-4.504-2.223l13.328-27.025L84.677,28.818z M101.358,7.175l-1.254,2.268   c-1.44,2.67-4.336,8.022-8.52,9.146l-3.928,7.963l-7.508-3.703l3.856-7.821c-1.881-4.193,0.813-10.451,2.011-13.197L86.808,0   L101.358,7.175z M94.988,11.499l-7.621-3.757c-0.94,3.172-1.154,6.195,1.071,7.294C90.873,16.236,93.021,14.393,94.988,11.499z    M54.328,81.898c2.092-0.252,7.09-0.428,11.123,2.604c0.746,0.562,1.412,1.209,2.012,1.923l2.744-5.562l1.229-2.49l4.106-8.329   c0.572-1.162-2.078-3.354-6.453-5.837l2.277-4.62l-7.509-3.702l-2.276,4.62c-2.342-0.909-5.646-1.983-7.402-1.983   c-0.594,0-1.012,0.123-1.158,0.418l-5.645,11.438l-2.572,5.216l-0.104,0.211c-0.177,0.357-0.186,0.814-0.081,1.336   C47.761,77.398,51.112,78.738,54.328,81.898z M82.752,92.48c0.047-2.668-2.532-3.472-4.438-3.472c-0.527,0-1.025,0.14-1.508,0.337   c0.713-1.113,1.139-2.424,1.139-3.837c0-3.099-1.635-5.47-3.729-6.067l-4.396,8.912c-0.146,0.297-0.354,0.562-0.596,0.81   c0.92,1.921,1.483,4.188,1.684,6.789c0.074,0.963-0.648,1.804-1.609,1.877c-0.047,0.005-0.092,0.007-0.137,0.007   c-0.904,0-1.674-0.697-1.742-1.615c-0.312-4.125-1.686-7.125-4.064-8.916c-3.881-2.916-9.231-1.837-9.289-1.83l-0.961,0.2   l-0.672-0.716c-8.479-9.037-17.199-1.328-17.565-0.993c-0.717,0.646-1.822,0.597-2.473-0.12c-0.649-0.719-0.594-1.822,0.123-2.476   c1.938-1.758,5.26-3.7,9.155-4.179c-0.109-0.771-0.053-1.479,0.245-2.077l0.816-1.658l1.535-3.108c-1.1,0.021-0.94,0.1-1.942,0.399   c-2.736-3.519-7.049-5.799-11.917-5.799c-8.274,0-14.982,6.562-14.982,14.655c0,1.218,0.168,2.394,0.453,3.521   c-4.726,1.966-7.892,5.507-7.892,9.562c0,1.297,0.34,2.539,0.936,3.696c-2.113,0.925-3.561,2.677-3.561,4.714   c0,2.726,2.571,4.957,5.906,5.336v0.075h0.983h66.875c0.27,0.063,0.541,0.106,0.828,0.106c0.018,0,0.029-0.002,0.045-0.004   c0.373,0.059,0.75,0.111,1.145,0.111c4.033,0,7.306-3.23,7.306-7.221C88.444,96.071,86.006,93.204,82.752,92.48z" fill="#91DC5A"/>
</g>
<g>
</g>
<g>
</g>
<g>
</g>
<g>
</g>
<g>
</g>
<g>
</g>
<g>
</g>
<g>
</g>
<g>
</g>
<g>
</g>
<g>
</g>
<g>
</g>
<g>
</g>
<g>
</g>
<g>
</g>
</svg>
