<?xml version="1.0" encoding="iso-8859-1"?>
<!-- Generator: Adobe Illustrator 19.0.0, SVG Export Plug-In . SVG Version: 6.00 Build 0)  -->
<svg version="1.1" id="Layer_1" xmlns="http://www.w3.org/2000/svg" xmlns:xlink="http://www.w3.org/1999/xlink" x="0px" y="0px"
	 viewBox="0 0 512 512" style="enable-background:new 0 0 512 512;" xml:space="preserve">
<path style="fill:#6B7F9E;" d="M256,0c141.311,0,256,114.689,256,256S397.311,512,256,512S0,397.311,0,256S114.689,0,256,0z"/>
<path style="fill:#FF7069;" d="M168.661,318.177c1.823-0.547,3.647-0.729,5.652-0.729c6.746,0,12.946,3.282,16.593,8.387
	c2.553-9.481,11.305-16.41,21.516-16.41c2.006,0,3.829,0.182,5.652,0.729c1.459-10.758,10.758-18.963,21.698-18.963
	c7.84,0,14.587,4.011,18.598,10.211c4.376-4.194,10.393-6.746,16.775-6.746c7.84,0,14.769,3.647,19.145,9.299
	c4.011-10.211,13.858-17.504,25.527-17.504c14.222,0,25.892,10.758,27.35,24.615c1.276-0.182,2.553-0.365,3.829-0.365
	c6.564,0,12.399,3.282,15.863,8.205c3.829-2.917,8.752-4.741,13.858-4.741c8.387,0,15.681,4.558,19.692,11.122
	c-16.228,10.211-33.915,18.234-52.695,23.704c-6.564-1.094-12.034-5.47-14.587-11.305c-4.011,2.188-8.57,3.464-13.311,3.464
	c-9.481,0-17.687-4.741-22.61-11.852c-3.829,8.387-12.399,14.04-22.063,14.04c-9.299,0-17.504-5.288-21.698-13.128
	c-3.829,2.917-8.57,4.741-13.675,4.741c-1.823,0-3.464-0.182-5.288-0.547c-0.729,5.288-3.1,9.846-6.746,13.311
	c-21.516-6.746-41.573-16.775-59.442-29.721L168.661,318.177z M312.16,356.103c-7.293,0.729-14.587,1.094-22.063,1.094h-0.182
	c1.641-4.558,6.199-8.023,11.305-8.023c4.741,0,8.934,2.735,10.94,6.746V356.103z M264.387,355.738
	c-3.829-0.547-7.658-1.094-11.487-1.823c0.182-3.1,2.735-5.47,5.835-5.47c3.282,0,5.835,2.553,5.835,5.835
	c0,0.547,0,0.912-0.182,1.276V355.738z"/>
<g>
	<path style="fill:#5FDC68;" d="M405.88,10.211C190.906-19.692,237.584,184.707,342.063,128
		C390.017,101.926,378.712,27.533,405.88,10.211z"/>
	<path style="fill:#5FDC68;" d="M134.199,115.783c161.003-61.083,157.538,91.168,74.211,68.194
		C167.385,172.672,158.632,121.801,134.199,115.783z"/>
</g>
<path style="fill:#FFE356;" d="M276.604,223.909l-3.464,0.182c-12.399-85.333-71.84-91.897-72.023-92.08
	C243.966,138.576,273.322,170.12,276.604,223.909z"/>
<path style="fill:#5FDC68;" d="M397.675,169.937c-132.376-48.866-128.365,75.852-60.353,56.342
	C370.872,216.615,377.618,175.043,397.675,169.937z"/>
<g>
	<path style="fill:#FFE356;" d="M273.14,266.393l3.464,0.729c24.068-86.792,86.61-86.063,86.792-86.063
		c-45.219,1.276-79.863,30.085-90.256,85.516V266.393z"/>
	<path style="fill:#FFE356;" d="M367.59,32.456c-115.601,33.003-84.422,192.547-82.234,278.063l-14.04,4.376
		C267.67,235.031,247.066,52.695,367.59,32.456z"/>
</g>
<path style="fill:#F7635B;" d="M179.783,325.652c5.835,0.547,10.94,3.647,14.405,8.023c2.553-9.117,10.94-15.863,20.969-15.863
	c1.823,0,3.829,0.182,5.47,0.729c1.459-10.393,10.393-18.234,21.151-18.234c7.476,0,14.222,3.829,17.869,9.846
	c4.194-4.011,10.028-6.564,16.228-6.564c7.476,0,14.222,3.464,18.598,8.934c3.829-10.028,13.493-16.957,24.798-16.957
	c13.675,0,25.162,10.393,26.439,23.886c1.276-0.182,2.37-0.365,3.647-0.365c6.382,0,12.034,3.1,15.316,8.023
	c3.829-2.917,8.387-4.558,13.493-4.558c6.199,0,11.852,2.553,16.046,6.746c-30.632,17.869-66.37,28.08-104.296,28.08
	c-40.479,0-78.222-11.487-110.131-31.544V325.652z"/>
<path style="fill:#FED298;" d="M226.279,294.108c34.826,10.029,99.191,20.786,99.191,20.786s-3.647,23.157-23.157,27.533
	s-71.476-5.835-71.476-5.835s-9.481,9.299,7.293,12.399c16.775,3.1,98.644,1.276,98.644,1.276s84.239-39.932,98.644-45.219
	c14.405-5.288,23.157,8.023,23.157,8.023s-96.821,76.764-105.937,83.328c-9.117,6.746-159.727,19.692-159.727,19.692l-44.672,4.558
	l-48.137,38.291c-24.798-19.145-46.131-42.667-62.541-69.652l68.741-50.142c25.345-42.484,85.151-55.248,119.977-45.219V294.108z"/>
<path style="fill:#F0BA7D;" d="M445.447,323.464c-26.803,21.151-85.698,67.829-92.809,72.934
	c-9.117,6.746-159.727,19.692-159.727,19.692l-44.672,4.558l-48.137,38.291c-1.641-1.276-3.282-2.553-4.923-3.829
	c26.803-20.786,56.524-44.672,54.154-43.396c-2.37,1.276,184.889-13.311,199.658-20.969c14.952-7.658,86.427-62.541,89.527-66.553
	C441.618,320.365,445.447,323.464,445.447,323.464L445.447,323.464z"/>
<g>
	<path style="fill:#FFFFFF;" d="M299.396,312.889l-1.823,8.57l20.057,1.276c1.459-1.641,2.553-3.647,1.823-6.929l-20.057-2.735
		V312.889z"/>
	<path style="fill:#FFFFFF;" d="M443.077,319.453l2.37,2.553l10.758-7.658c0.729-1.459-2.553-2.006-2.553-2.006L443.077,319.453z"/>
</g>
<g>
</g>
<g>
</g>
<g>
</g>
<g>
</g>
<g>
</g>
<g>
</g>
<g>
</g>
<g>
</g>
<g>
</g>
<g>
</g>
<g>
</g>
<g>
</g>
<g>
</g>
<g>
</g>
<g>
</g>
</svg>
